# xmcd
#
# Track frame offsets:
#	150
#	36927
#	74390
#	106292
#	143350
#	196987
#	222490
#	248567
#	269392
#	292132
#	314165
#
# Disc length: 4480 seconds
#
# Revision: 0
# Processed by: cddbd v1.4PL0 Copyright (c) Steve Scherf et al.
# Submitted via: audiograbber 1.82.02
#
DISCID=af117e0b
DTITLE=Johnny Winter - 1990-05-18 - Barcelona Boogie
DYEAR=1900
DGENRE=
TTITLE0=Johnny Winter - Instrumental
TTITLE1=Johnny Winter - Give It Back
TTITLE2=Johnny Winter - You're Humbugin' Me
TTITLE3=Johnny Winter - Don't Take Advantage Of Me
TTITLE4=Johnny Winter - Red House
TTITLE5=Johnny Winter - Mojo Boogie
TTITLE6=Johnny Winter - Stranger Blues
TTITLE7=Johnny Winter - Johnny B. Goode
TTITLE8=Johnny Winter - Serious As A Heart Attack
TTITLE9=Johnny Winter - Instrumental
TTITLE10=Johnny Winter - Jumpin'Jack Flash
EXTD=
EXTT0=
EXTT1=
EXTT2=
EXTT3=
EXTT4=
EXTT5=
EXTT6=
EXTT7=
EXTT8=
EXTT9=
EXTT10=
PLAYORDER=
